<svg height="512pt" viewBox="-24 0 512 512.00047" width="512pt" xmlns="http://www.w3.org/2000/svg"><path id='1' d="m448.1875 457.519531-128.226562-59.546875c-1.277344-.589844-2.59375-1.089844-3.941407-1.488281l-88.621093-30.492187 31.179687-62.984376 36.484375 47.09375c1.589844 2.046876 3.5 3.824219 5.660156 5.257813l78.410156 52.007813c10.882813 7.222656 25.679688 4.347656 32.996094-6.675782 7.265625-10.957031 4.277344-25.730468-6.679687-32.996094l-75.148438-49.847656-53.015625-68.746094c-5.539062-7.179687-12.679687-12.960937-20.855468-16.882812l-55.988282-26.867188-21.75-81.699218 24.070313-93.933594c3.261719-12.734375-4.417969-25.703125-17.152344-28.96875-12.742187-3.261719-25.707031 4.417969-28.96875 17.152344l-25.609375 99.957031c-1.015625 3.949219-.996094 8.09375.054688 12.03125 6.703124 25.15625 26.316406 98.949219 26.832031 100.667969l-66.804688 134.941406-79.53125 58.820312c-9.804687 7.25-14.019531 20.019532-10.164062 31.851563 3.128906 9.613281 11.324219 16.714844 21.160156 19.050781l151.515625 36c15.527344 3.683594 31.183594-6.070312 34.546875-21.859375 3.253906-15.265625-6.730469-30.253906-21.917969-33.863281l-91.75-21.796875 48.46875-35.84375 154.371094 52.820313 126.3125 58.65625c14.304688 6.644531 31.292969.433593 37.9375-13.875 6.648438-14.308594.433594-31.296876-13.875-37.941407zm0 0"/><path d="m274.0625 115.15625c-23.695312-11.730469-52.414062-2.03125-64.144531 21.664062-11.730469 23.695313-2.035157 52.414063 21.664062 64.144532 23.695313 11.734375 52.414063 2.035156 64.144531-21.660156 11.730469-23.695313 2.03125-52.417969-21.664062-64.148438zm0 0"/></svg>
